<?xml version="1.0" standalone="no"?>
<!DOCTYPE svg PUBLIC "-//W3C//DTD SVG 20010904//EN"
 "http://www.w3.org/TR/2001/REC-SVG-20010904/DTD/svg10.dtd">
<svg version="1.0" xmlns="http://www.w3.org/2000/svg"
 width="512.000000pt" height="512.000000pt" viewBox="0 0 512.000000 512.000000"
 preserveAspectRatio="xMidYMid meet">
<metadata>
Created by potrace 1.14, written by Peter Selinger 2001-2017
</metadata>
<g transform="translate(0.000000,512.000000) scale(0.100000,-0.100000)"
fill="#000000" stroke="none">
<path d="M4636 5100 c-25 -10 -49 -19 -51 -19 -12 -3 -32 -10 -50 -17 -11 -4
-23 -7 -27 -6 -13 3 -189 -76 -198 -88 -3 -4 -25 -17 -49 -29 -36 -19 -247
-161 -301 -204 -9 -7 -38 -29 -65 -51 -75 -58 -263 -253 -292 -303 -14 -24
-28 -43 -31 -43 -4 0 -20 -25 -37 -55 -16 -30 -33 -55 -37 -55 -4 0 -8 -9 -8
-19 0 -32 -16 -33 -41 -3 -32 37 -77 69 -179 126 -82 47 -145 103 -205 183
-16 21 -32 40 -36 43 -4 3 -18 24 -31 47 -28 49 -39 45 -81 -31 -48 -87 -78
-250 -59 -320 11 -38 6 -51 -13 -36 -11 10 -132 37 -195 45 -33 4 -118 21
-130 25 -3 1 -8 2 -12 1 -12 -1 -180 59 -237 85 -37 18 -84 55 -146 117 -113
114 -121 121 -123 104 0 -6 -3 -23 -7 -37 -3 -14 -8 -62 -10 -106 -4 -82 5
-118 68 -264 6 -14 11 -27 12 -30 6 -24 49 -100 55 -100 5 0 11 -9 15 -19 3
-11 28 -43 55 -71 47 -49 61 -68 42 -56 -5 3 -24 1 -43 -4 -19 -5 -37 -10 -41
-10 -5 0 -33 -11 -63 -24 l-54 -25 -32 57 c-61 109 -230 347 -279 392 -3 3
-30 34 -60 70 -164 194 -506 527 -625 610 -121 84 -181 120 -199 121 -11 1
-34 3 -51 5 -53 6 -96 -16 -167 -88 -37 -39 -68 -76 -68 -84 0 -8 -5 -14 -11
-14 -5 0 -8 -4 -5 -9 4 -5 3 -11 -1 -13 -16 -7 -81 -148 -93 -203 -5 -20 -8
-32 -33 -105 -30 -88 -46 -149 -53 -193 -2 -18 -6 -43 -8 -57 -2 -14 -10 -45
-16 -70 -7 -25 -14 -54 -15 -65 -2 -20 -6 -40 -25 -140 -17 -89 -31 -237 -32
-355 -1 -84 10 -274 17 -311 3 -13 8 -44 10 -69 3 -25 8 -60 11 -79 3 -19 8
-52 10 -74 3 -23 8 -45 11 -51 4 -6 8 -22 10 -36 4 -31 8 -50 16 -70 3 -8 11
-37 17 -65 14 -56 65 -219 79 -250 35 -81 118 -246 138 -272 12 -17 23 -35 23
-38 0 -4 14 -27 31 -52 l32 -46 -37 7 c-20 4 -76 9 -124 11 -99 5 -216 15
-246 21 -141 29 -206 24 -206 -17 0 -19 43 -134 52 -137 5 -2 6 -8 3 -13 -7
-11 25 -62 67 -109 9 -10 14 -21 11 -24 -4 -3 -1 -6 5 -6 6 0 30 -25 53 -57
23 -31 58 -70 77 -87 20 -17 51 -46 71 -63 20 -18 41 -33 46 -33 6 0 18 -7 28
-14 17 -13 17 -16 3 -38 -8 -13 -27 -54 -41 -93 -27 -75 -27 -75 -74 -178 -17
-37 -31 -69 -31 -71 0 -3 -5 -17 -12 -33 -13 -32 -19 -52 -20 -70 -1 -7 -6
-13 -11 -13 -6 0 -8 -3 -4 -6 3 -3 -1 -26 -8 -51 -21 -70 -5 -94 80 -117 54
-14 100 -19 210 -21 66 -1 133 -3 149 -3 l29 -2 -27 -21 c-30 -24 -52 -62 -72
-128 -7 -25 -14 -47 -14 -48 0 -9 53 -6 84 4 22 7 51 15 65 18 14 3 37 7 51
10 14 3 41 8 60 10 19 3 49 7 65 9 72 11 148 17 255 21 107 4 119 2 170 -21
30 -14 62 -27 70 -29 8 -1 31 -10 50 -18 l35 -16 -47 4 c-87 7 -84 -38 11
-168 62 -85 111 -139 170 -189 l33 -28 -26 -11 c-14 -7 -26 -17 -26 -22 0 -6
-3 -8 -6 -4 -4 3 -31 -17 -61 -46 -30 -29 -59 -54 -64 -55 -5 -2 -9 -8 -9 -14
0 -6 -8 -18 -18 -27 -27 -25 -72 -95 -72 -113 0 -34 40 -45 142 -41 l96 4 -24
-50 c-13 -28 -26 -64 -29 -80 l-5 -31 1176 0 1176 0 -6 22 c-4 13 -8 28 -10
33 -2 6 -6 17 -9 25 -3 8 -16 44 -28 80 -11 36 -29 84 -40 108 -11 23 -30 71
-43 105 -20 53 -116 250 -145 297 -5 8 -12 22 -15 30 -4 8 -24 42 -46 75 -49
75 -91 147 -88 150 6 6 97 45 104 45 3 0 49 21 102 46 90 44 99 46 156 40 34
-3 77 -10 97 -16 19 -5 49 -12 65 -14 120 -19 328 -109 429 -188 91 -70 105
-49 63 92 -28 95 -67 181 -94 207 -15 16 -19 33 -6 33 4 0 34 -7 68 -15 34 -8
88 -19 120 -24 32 -6 69 -12 82 -15 118 -25 182 5 161 76 -5 18 -12 47 -15 63
-14 82 -35 145 -90 270 -29 64 -115 184 -161 223 -24 21 -43 39 -43 42 0 3 17
16 37 30 41 27 133 119 133 133 0 4 4 6 9 2 6 -3 15 5 22 17 6 13 22 34 35 48
46 50 84 92 116 131 18 23 43 53 56 67 51 59 65 92 56 125 -9 30 -11 31 -84
36 -41 2 -135 5 -207 5 -73 1 -133 2 -133 4 0 4 83 93 108 115 12 11 22 26 22
33 0 7 4 14 8 16 18 7 92 117 130 193 88 173 131 293 148 410 3 17 7 41 10 55
24 107 39 652 23 820 -6 58 -12 123 -13 145 -2 22 -6 56 -10 75 -3 19 -8 58
-11 85 -9 85 -16 138 -27 194 -5 30 -12 64 -13 75 -23 154 -119 475 -146 492
-9 5 -41 11 -105 18 -17 2 -52 -5 -78 -14z"/>
</g>
</svg>
